<svg id="_x31_px" enable-background="new 0 0 24 24" height="512" viewBox="0 0 24 24" width="512" xmlns="http://www.w3.org/2000/svg"><path d="m12 14c-.12 0-12-.109-12-4 0-1.145 1.205-2.139 3.486-2.875.262-.086.544.06.629.322s-.058.544-.322.629c-2.06.665-2.793 1.43-2.793 1.924 0 1.859 6.407 3 11 3 3.948 0 11-1.002 11-3 0-.62-.994-1.325-2.659-1.886-.262-.088-.402-.372-.314-.633s.373-.404.633-.314c2.761.929 3.34 2.054 3.34 2.833 0 3.891-11.88 4-12 4z"/><path d="m12 24c-5.817 0-12-1.402-12-4v-10c0-.276.224-.5.5-.5s.5.224.5.5v10c0 1.253 4.185 3 11 3s11-1.747 11-3v-10c0-.276.224-.5.5-.5s.5.224.5.5v10c0 2.598-6.183 4-12 4z"/><path d="m3.61 22.89c-.129 0-.257-.049-.355-.148-.194-.196-.192-.513.003-.707l3.479-3.45c.526-.525 1.35-.524 1.876.001l1.992 1.902c.076.076.17.121.232.111.086-.001.17-.042.244-.118l2.947-3.059c.536-.535 1.329-.562 1.854-.066l4.947 4.358c.208.182.228.499.045.706-.182.207-.499.228-.705.044l-4.96-4.37c-.171-.157-.35-.088-.467.028l-2.942 3.054c-.264.27-.603.419-.956.422-.388.01-.682-.138-.938-.396l-1.992-1.902c-.149-.15-.331-.147-.471-.008l-3.48 3.452c-.098.098-.226.146-.353.146z"/><path d="m10.5 18c-.827 0-1.5-.673-1.5-1.5s.673-1.5 1.5-1.5 1.5.673 1.5 1.5-.673 1.5-1.5 1.5zm0-2c-.275 0-.5.224-.5.5s.225.5.5.5.5-.224.5-.5-.225-.5-.5-.5z"/><path d="m19.5 13.15c-.276 0-.5-.224-.5-.5v-2.21c0-.276.224-.5.5-.5s.5.224.5.5v2.21c0 .276-.224.5-.5.5z"/><path d="m4.5 13.15c-.276 0-.5-.224-.5-.5v-1.92c0-.276.224-.5.5-.5s.5.224.5.5v1.92c0 .276-.224.5-.5.5z"/><path d="m12.5 9h-1.5c-.552 0-1-.449-1-1v-4c0-.551.448-1 1-1h2c.276 0 .5.224.5.5s-.224.5-.5.5h-2v1.5h1.5c.552 0 1 .449 1 1v1.5c0 .551-.448 1-1 1zm-1.5-2.5v1.5h1.5v-1.5z"/><path d="m17 9h-1.5c-.552 0-1-.449-1-1v-4c0-.551.448-1 1-1h1.5c.552 0 1 .449 1 1v4c0 .551-.448 1-1 1zm-2-1 .5.001v-.001zm.5 0h1.5v-4h-1.5z"/><path d="m8 9h-1.5c-.276 0-.5-.224-.5-.5s.224-.5.5-.5h1.5v-1.5h-1.5c-.276 0-.5-.224-.5-.5s.224-.5.5-.5h1.5c.552 0 1 .449 1 1v1.5c0 .551-.448 1-1 1z"/><path d="m8 6.5h-1.5c-.276 0-.5-.224-.5-.5s.224-.5.5-.5h1.5v-1.5h-1.5c-.276 0-.5-.224-.5-.5s.224-.5.5-.5h1.5c.552 0 1 .449 1 1v1.5c0 .551-.448 1-1 1z"/><path d="m20.5 3c-.827 0-1.5-.673-1.5-1.5s.673-1.5 1.5-1.5 1.5.673 1.5 1.5-.673 1.5-1.5 1.5zm0-2c-.275 0-.5.224-.5.5s.225.5.5.5.5-.224.5-.5-.225-.5-.5-.5z"/></svg>