<svg id="_x31_px" enable-background="new 0 0 24 24" height="512" viewBox="0 0 24 24" width="512" xmlns="http://www.w3.org/2000/svg"><path d="m11.5 12c-.276 0-.5-.224-.5-.5v-5c0-.276.224-.5.5-.5h1.5c1.103 0 2 .897 2 2s-.897 2-2 2h-1v1.5c0 .276-.224.5-.5.5zm.5-3h1c.552 0 1-.449 1-1s-.448-1-1-1h-1z"/><path d="m14.5 12c-.128 0-.256-.049-.354-.146l-2-2c-.195-.195-.195-.512 0-.707s.512-.195.707 0l2 2c.195.195.195.512 0 .707-.097.097-.225.146-.353.146z"/><path d="m7 12c-.221 0-.415-.145-.479-.356l-1.5-5c-.08-.264.07-.543.335-.623.264-.078.543.071.623.335l1.021 3.404 1.021-3.403c.079-.265.36-.413.622-.335.265.08.415.358.335.623l-1.5 5c-.063.21-.257.355-.478.355z"/><path d="m18.5 9c-.827 0-1.5-.673-1.5-1.5s.673-1.5 1.5-1.5 1.5.673 1.5 1.5-.673 1.5-1.5 1.5zm0-2c-.275 0-.5.224-.5.5s.225.5.5.5.5-.224.5-.5-.225-.5-.5-.5z"/><path d="m21.5 17h-6.33c-.215 0-.406-.138-.475-.342l-.439-1.32c-.069-.199-.262-.338-.476-.338h-3.56c-.214 0-.406.139-.479.346l-.437 1.313c-.068.203-.259.341-.474.341h-6.33c-1.379 0-2.5-1.122-2.5-2.5v-9c0-1.378 1.121-2.5 2.5-2.5h19c1.379 0 2.5 1.122 2.5 2.5v9c0 1.378-1.121 2.5-2.5 2.5zm-5.97-1h5.97c.827 0 1.5-.673 1.5-1.5v-9c0-.827-.673-1.5-1.5-1.5h-19c-.827 0-1.5.673-1.5 1.5v9c0 .827.673 1.5 1.5 1.5h5.97l.325-.978c.216-.614.787-1.022 1.425-1.022h3.561c.638 0 1.209.408 1.422 1.015z"/><path d="m20.5 4c-.276 0-.5-.224-.5-.5v-1c0-.827-.673-1.5-1.5-1.5h-13c-.827 0-1.5.673-1.5 1.5v1c0 .276-.224.5-.5.5s-.5-.224-.5-.5v-1c0-1.378 1.121-2.5 2.5-2.5h13c1.379 0 2.5 1.122 2.5 2.5v1c0 .276-.224.5-.5.5z"/><path d="m11 24c-.151 0-.302-.069-.4-.2-.165-.221-.12-.534.101-.7l1.467-1.1-1.468-1.1c-.221-.166-.266-.479-.101-.7.167-.222.48-.264.7-.1l2 1.5c.126.094.2.243.2.4s-.074.306-.2.4l-2 1.5c-.089.067-.195.1-.299.1z"/><path d="m12 22.5c-1.025 0-2.07-.038-3.105-.111-4.3-.31-8.895-1.363-8.895-3.389 0-.211.055-.428.163-.644.124-.248.426-.347.672-.223s.346.424.223.671c-.038.076-.058.142-.058.196 0 .733 2.531 2 7.966 2.392 1.019.072 2.031.143 3.055.108.236 0 .463 0 .689-.009.289-.012.509.203.521.479.011.276-.204.509-.479.52-.248.01-.495.01-.752.01z"/><path d="m15.489 22.35c-.257 0-.476-.198-.497-.459-.022-.275.182-.517.457-.54 5.152-.421 7.551-1.652 7.551-2.351 0-.054-.02-.12-.058-.196-.123-.247-.023-.547.223-.671.245-.125.547-.025.672.223.108.216.163.433.163.644 0 2.463-6.482 3.186-8.469 3.349-.013.001-.028.001-.042.001z"/></svg>