<svg id="_x31_px" enable-background="new 0 0 24 24" height="512" viewBox="0 0 24 24" width="512" xmlns="http://www.w3.org/2000/svg"><path d="m21.5 10.5c-.276 0-.5-.224-.5-.5v-2c0-4.81-4.66-7-8.99-7-4.34 0-9.01 2.188-9.01 6.99v2.01c0 .276-.224.5-.5.5s-.5-.224-.5-.5v-2.01c0-5.49 5.188-7.99 10.01-7.99 4.811 0 9.99 2.503 9.99 8v2c0 .276-.224.5-.5.5z"/><path d="m12.01 24c-3.503 0-6.334-1.698-8.415-5.046-.03-.053-.495-.875-.691-1.322-.309-.69-.538-1.416-.684-2.155-.054-.271.123-.534.394-.587.274-.051.533.123.587.394.131.666.339 1.32.617 1.943.178.404.633 1.209.638 1.217 1.901 3.06 4.376 4.556 7.554 4.556 3.118 0 5.562-1.452 7.469-4.439s.509-.868.704-1.305c.281-.647.486-1.299.627-1.986.057-.272.321-.444.591-.39.271.055.444.319.39.59-.155.755-.381 1.471-.691 2.188-.222.495-.745 1.387-.768 1.425-2.087 3.268-4.884 4.917-8.322 4.917z"/><path d="m11.83 8c-.051 0-.104-.008-.155-.024-1.822-.594-2.85-1.372-3.427-2.035-.281.737-.787 1.398-1.501 1.954-.217.168-.532.13-.701-.088-.17-.218-.131-.532.088-.702.913-.71 1.376-1.587 1.376-2.605 0-.264.205-.482.469-.499.279-.023.495.175.527.437.001.005.298 1.55 3.479 2.587.262.086.405.368.32.63-.069.211-.264.345-.475.345z"/><path d="m19.5 17h-15c-.947 0-1.827-.55-2.24-1.402-.17-.329-.26-.703-.26-1.098v-.5c0-.276.224-.5.5-.5s.5.224.5.5v.5c0 .237.051.45.154.65.253.521.779.85 1.346.85h15c.575 0 1.093-.326 1.352-.851.097-.195.148-.42.148-.649v-.5c0-.276.224-.5.5-.5s.5.224.5.5v.5c0 .384-.088.762-.253 1.093-.427.867-1.288 1.407-2.247 1.407z"/><path d="m21.5 10.5c-.276 0-.5-.224-.5-.5v-.5c0-.827-.673-1.5-1.5-1.5h-15c-.827 0-1.5.673-1.5 1.5v.5c0 .276-.224.5-.5.5s-.5-.224-.5-.5v-.5c0-1.378 1.121-2.5 2.5-2.5h15c1.379 0 2.5 1.122 2.5 2.5v.5c0 .276-.224.5-.5.5z"/><path d="m12 21.013c-1.068 0-2.073-.416-2.828-1.172-.195-.195-.195-.512 0-.707s.512-.195.707 0c1.133 1.134 3.109 1.134 4.242 0 .195-.195.512-.195.707 0s.195.512 0 .707c-.755.756-1.76 1.172-2.828 1.172z"/><path d="m22.5 14.5h-2c-.827 0-1.5-.673-1.5-1.5v-2c0-.827.673-1.5 1.5-1.5h2c.827 0 1.5.673 1.5 1.5v2c0 .827-.673 1.5-1.5 1.5zm-2-4c-.275 0-.5.224-.5.5v2c0 .276.225.5.5.5h2c.275 0 .5-.224.5-.5v-2c0-.276-.225-.5-.5-.5z"/><path d="m3.5 14.5h-2c-.827 0-1.5-.673-1.5-1.5v-2c0-.827.673-1.5 1.5-1.5h2c.827 0 1.5.673 1.5 1.5v2c0 .827-.673 1.5-1.5 1.5zm-2-4c-.275 0-.5.224-.5.5v2c0 .276.225.5.5.5h2c.275 0 .5-.224.5-.5v-2c0-.276-.225-.5-.5-.5z"/><path d="m15.5 12c-.827 0-1.5-.673-1.5-1.5s.673-1.5 1.5-1.5 1.5.673 1.5 1.5-.673 1.5-1.5 1.5zm0-2c-.275 0-.5.224-.5.5s.225.5.5.5.5-.224.5-.5-.225-.5-.5-.5z"/></svg>