<svg id="_x31_px" enable-background="new 0 0 24 24" height="512" viewBox="0 0 24 24" width="512" xmlns="http://www.w3.org/2000/svg"><path d="m22.5 21h-21c-.827 0-1.5-.673-1.5-1.5v-14c0-.827.673-1.5 1.5-1.5.276 0 .5.224.5.5s-.224.5-.5.5-.5.224-.5.5v14c0 .276.224.5.5.5h21c.276 0 .5-.224.5-.5v-14c0-.276-.224-.5-.5-.5s-.5-.224-.5-.5.224-.5.5-.5c.827 0 1.5.673 1.5 1.5v14c0 .827-.673 1.5-1.5 1.5z"/><path d="m15.5 24h-7c-.202 0-.385-.122-.462-.309-.078-.187-.035-.402.108-.545 1.316-1.316 1.333-2.59 1.333-2.644 0-.274.223-.5.497-.501h.003c.273 0 .496.218.5.491 0 .058.003 1.196-.909 2.507h4.857c-.915-1.308-.928-2.442-.928-2.5 0-.276.224-.5.5-.5.275 0 .499.222.5.497.001.063.04 1.336 1.354 2.649.143.143.186.358.108.545-.076.188-.259.31-.461.31zm-1-3.5h.01z"/><path d="m23.5 18h-23c-.276 0-.5-.224-.5-.5s.224-.5.5-.5h23c.276 0 .5.224.5.5s-.224.5-.5.5z"/><path d="m18.5 12h-3.532c-.446 0-.867-.197-1.152-.54l-1.432-1.718c-.13-.157-.296-.18-.384-.18s-.253.023-.384.18l-1.432 1.719c-.286.342-.706.539-1.152.539h-3.532c-.827 0-1.5-.673-1.5-1.5v-6c0-.827.673-1.5 1.5-1.5h13c.827 0 1.5.673 1.5 1.5v6c0 .827-.673 1.5-1.5 1.5zm-6.5-3.438c.447 0 .867.197 1.152.54l1.432 1.718c.096.115.235.18.384.18h3.532c.276 0 .5-.224.5-.5v-6c0-.276-.224-.5-.5-.5h-13c-.276 0-.5.224-.5.5v6c0 .276.224.5.5.5h3.532c.149 0 .289-.065.384-.18l1.432-1.719c.285-.342.705-.539 1.152-.539z"/><path d="m17.5 4c-.276 0-.5-.224-.5-.5v-2c0-.276-.224-.5-.5-.5h-9c-.276 0-.5.224-.5.5v2c0 .276-.224.5-.5.5s-.5-.224-.5-.5v-2c0-.827.673-1.5 1.5-1.5h9c.827 0 1.5.673 1.5 1.5v2c0 .276-.224.5-.5.5z"/><path d="m19.5 8h-3c-.276 0-.5-.224-.5-.5s.224-.5.5-.5h3c.276 0 .5.224.5.5s-.224.5-.5.5z"/><path d="m7.5 8h-3c-.276 0-.5-.224-.5-.5s.224-.5.5-.5h3c.276 0 .5.224.5.5s-.224.5-.5.5z"/></svg>